{
  "accessors": [
    {
      "bufferView": 0,
      "componentType": 5126,
      "count": 360,
      "max": [
        -0.08695356547832489,
        1.1531364917755127,
        0.30735188722610474
      ],
      "min": [
        -0.6788459420204163,
        0.022093236446380615,
        -0.28690576553344727
      ],
      "type": "VEC3"
    },
    {
      "bufferView": 1,
      "componentType": 5126,
      "count": 360,
      "type": "VEC3"
    },
    {
      "bufferView": 2,
      "componentType": 5126,
      "count": 360,
      "type": "VEC2"
    },
    {
      "bufferView": 3,
      "componentType": 5125,
      "count": 360,
      "type": "SCALAR"
    },
    {
      "bufferView": 4,
      "componentType": 5126,
      "count": 360,
      "type": "VEC4"
    },
    {
      "bufferView": 5,
      "componentType": 5123,
      "count": 360,
      "type": "VEC4"
    },
    {
      "bufferView": 6,
      "componentType": 5126,
      "count": 6,
      "type": "MAT4"
    },
    {
      "bufferView": 7,
      "componentType": 5126,
      "count": 360,
      "max": [
        -0.5047304034233093,
        1.9293601512908936,
        0.3110358715057373
      ],
      "min": [
        -1.1421535015106201,
        0.9176024198532104,
        -0.22050201892852783
      ],
      "type": "VEC3"
    },
    {
      "bufferView": 8,
      "componentType": 5126,
      "count": 360,
      "type": "VEC3"
    },
    {
      "bufferView": 9,
      "componentType": 5126,
      "count": 360,
      "type": "VEC2"
    },
    {
      "bufferView": 10,
      "componentType": 5125,
      "count": 360,
      "type": "SCALAR"
    },
    {
      "bufferView": 11,
      "componentType": 5126,
      "count": 360,
      "type": "VEC4"
    },
    {
      "bufferView": 12,
      "componentType": 5123,
      "count": 360,
      "type": "VEC4"
    },
    {
      "bufferView": 13,
      "componentType": 5126,
      "count": 6,
      "type": "MAT4"
    },
    {
      "bufferView": 14,
      "componentType": 5126,
      "count": 360,
      "max": [
        0.6655057668685913,
        1.1531355381011963,
        0.30735182762145996
      ],
      "min": [
        0.07361352443695068,
        0.022097498178482056,
        -0.28690457344055176
      ],
      "type": "VEC3"
    },
    {
      "bufferView": 15,
      "componentType": 5126,
      "count": 360,
      "type": "VEC3"
    },
    {
      "bufferView": 16,
      "componentType": 5126,
      "count": 360,
      "type": "VEC2"
    },
    {
      "bufferView": 17,
      "componentType": 5125,
      "count": 360,
      "type": "SCALAR"
    },
    {
      "bufferView": 18,
      "componentType": 5126,
      "count": 360,
      "type": "VEC4"
    },
    {
      "bufferView": 19,
      "componentType": 5123,
      "count": 360,
      "type": "VEC4"
    },
    {
      "bufferView": 20,
      "componentType": 5126,
      "count": 6,
      "type": "MAT4"
    },
    {
      "bufferView": 21,
      "componentType": 5126,
      "count": 360,
      "max": [
        1.198859453201294,
        1.9319002628326416,
        0.2879326343536377
      ],
      "min": [
        0.5186414122581482,
        0.9194509983062744,
        -0.2384670376777649
      ],
      "type": "VEC3"
    },
    {
      "bufferView": 22,
      "componentType": 5126,
      "count": 360,
      "type": "VEC3"
    },
    {
      "bufferView": 23,
      "componentType": 5126,
      "count": 360,
      "type": "VEC2"
    },
    {
      "bufferView": 24,
      "componentType": 5125,
      "count": 360,
      "type": "SCALAR"
    },
    {
      "bufferView": 25,
      "componentType": 5126,
      "count": 360,
      "type": "VEC4"
    },
    {
      "bufferView": 26,
      "componentType": 5123,
      "count": 360,
      "type": "VEC4"
    },
    {
      "bufferView": 27,
      "componentType": 5126,
      "count": 6,
      "type": "MAT4"
    },
    {
      "bufferView": 28,
      "componentType": 5126,
      "count": 600,
      "max": [
        0.27367493510246277,
        2.7275500297546387,
        0.2839037775993347
      ],
      "min": [
        -0.27367541193962097,
        2.1802000999450684,
        -0.2634464502334595
      ],
      "type": "VEC3"
    },
    {
      "bufferView": 29,
      "componentType": 5126,
      "count": 600,
      "type": "VEC3"
    },
    {
      "bufferView": 30,
      "componentType": 5126,
      "count": 600,
      "type": "VEC2"
    },
    {
      "bufferView": 31,
      "componentType": 5125,
      "count": 600,
      "type": "SCALAR"
    },
    {
      "bufferView": 32,
      "componentType": 5126,
      "count": 600,
      "type": "VEC4"
    },
    {
      "bufferView": 33,
      "componentType": 5123,
      "count": 600,
      "type": "VEC4"
    },
    {
      "bufferView": 34,
      "componentType": 5126,
      "count": 6,
      "type": "MAT4"
    },
    {
      "bufferView": 35,
      "componentType": 5126,
      "count": 360,
      "max": [
        0.1679387390613556,
        2.4767980575561523,
        0.30427277088165283
      ],
      "min": [
        0.0440615713596344,
        2.358126163482666,
        0.23152166604995728
      ],
      "type": "VEC3"
    },
    {
      "bufferView": 36,
      "componentType": 5126,
      "count": 360,
      "type": "VEC3"
    },
    {
      "bufferView": 37,
      "componentType": 5126,
      "count": 360,
      "type": "VEC2"
    },
    {
      "bufferView": 38,
      "componentType": 5125,
      "count": 360,
      "type": "SCALAR"
    },
    {
      "bufferView": 39,
      "componentType": 5126,
      "count": 360,
      "type": "VEC4"
    },
    {
      "bufferView": 40,
      "componentType": 5123,
      "count": 360,
      "type": "VEC4"
    },
    {
      "bufferView": 41,
      "componentType": 5126,
      "count": 6,
      "type": "MAT4"
    },
    {
      "bufferView": 42,
      "componentType": 5126,
      "count": 360,
      "max": [
        0.0783693790435791,
        2.278837203979492,
        0.25266921520233154
      ],
      "min": [
        0.03636397421360016,
        2.2364253997802734,
        0.22424471378326416
      ],
      "type": "VEC3"
    },
    {
      "bufferView": 43,
      "componentType": 5126,
      "count": 360,
      "type": "VEC3"
    },
    {
      "bufferView": 44,
      "componentType": 5126,
      "count": 360,
      "type": "VEC2"
    },
    {
      "bufferView": 45,
      "componentType": 5125,
      "count": 360,
      "type": "SCALAR"
    },
    {
      "bufferView": 46,
      "componentType": 5126,
      "count": 360,
      "type": "VEC4"
    },
    {
      "bufferView": 47,
      "componentType": 5123,
      "count": 360,
      "type": "VEC4"
    },
    {
      "bufferView": 48,
      "componentType": 5126,
      "count": 6,
      "type": "MAT4"
    },
    {
      "bufferView": 49,
      "componentType": 5126,
      "count": 360,
      "max": [
        0.03708275407552719,
        2.279763698577881,
        0.2635534405708313
      ],
      "min": [
        -0.003875063732266426,
        2.237578868865967,
        0.236580491065979
      ],
      "type": "VEC3"
    },
    {
      "bufferView": 50,
      "componentType": 5126,
      "count": 360,
      "type": "VEC3"
    },
    {
      "bufferView": 51,
      "componentType": 5126,
      "count": 360,
      "type": "VEC2"
    },
    {
      "bufferView": 52,
      "componentType": 5125,
      "count": 360,
      "type": "SCALAR"
    },
    {
      "bufferView": 53,
      "componentType": 5126,
      "count": 360,
      "type": "VEC4"
    },
    {
      "bufferView": 54,
      "componentType": 5123,
      "count": 360,
      "type": "VEC4"
    },
    {
      "bufferView": 55,
      "componentType": 5126,
      "count": 6,
      "type": "MAT4"
    },
    {
      "bufferView": 56,
      "componentType": 5126,
      "count": 360,
      "max": [
        -0.044416721910238266,
        2.4767985343933105,
        0.3042738437652588
      ],
      "min": [
        -0.16829383373260498,
        2.358126640319824,
        0.23152178525924683
      ],
      "type": "VEC3"
    },
    {
      "bufferView": 57,
      "componentType": 5126,
      "count": 360,
      "type": "VEC3"
    },
    {
      "bufferView": 58,
      "componentType": 5126,
      "count": 360,
      "type": "VEC2"
    },
    {
      "bufferView": 59,
      "componentType": 5125,
      "count": 360,
      "type": "SCALAR"
    },
    {
      "bufferView": 60,
      "componentType": 5126,
      "count": 360,
      "type": "VEC4"
    },
    {
      "bufferView": 61,
      "componentType": 5123,
      "count": 360,
      "type": "VEC4"
    },
    {
      "bufferView": 62,
      "componentType": 5126,
      "count": 6,
      "type": "MAT4"
    },
    {
      "bufferView": 63,
      "componentType": 5126,
      "count": 720,
      "max": [
        0.4087918698787689,
        2.032499313354492,
        0.39239025115966797
      ],
      "min": [
        -0.4087918698787689,
        1.241852045059204,
        -0.3719381093978882
      ],
      "type": "VEC3"
    },
    {
      "bufferView": 64,
      "componentType": 5126,
      "count": 720,
      "type": "VEC3"
    },
    {
      "bufferView": 65,
      "componentType": 5126,
      "count": 720,
      "type": "VEC2"
    },
    {
      "bufferView": 66,
      "componentType": 5125,
      "count": 720,
      "type": "SCALAR"
    },
    {
      "bufferView": 67,
      "componentType": 5126,
      "count": 720,
      "type": "VEC4"
    },
    {
      "bufferView": 68,
      "componentType": 5123,
      "count": 720,
      "type": "VEC4"
    },
    {
      "bufferView": 69,
      "componentType": 5126,
      "count": 6,
      "type": "MAT4"
    }
  ],
  "asset": {
    "generator": "Prisma3D Pro",
    "version": "2.0"
  },
  "bufferViews": [
    {
      "buffer": 0,
      "byteLength": 4320,
      "target": 34962
    },
    {
      "buffer": 1,
      "byteLength": 4320,
      "target": 34962
    },
    {
      "buffer": 2,
      "byteLength": 2880,
      "target": 34962
    },
    {
      "buffer": 3,
      "byteLength": 1440,
      "target": 34963
    },
    {
      "buffer": 4,
      "byteLength": 5760,
      "target": 34962
    },
    {
      "buffer": 5,
      "byteLength": 2880,
      "target": 34962
    },
    {
      "buffer": 6,
      "byteLength": 384
    },
    {
      "buffer": 7,
      "byteLength": 4320,
      "target": 34962
    },
    {
      "buffer": 8,
      "byteLength": 4320,
      "target": 34962
    },
    {
      "buffer": 9,
      "byteLength": 2880,
      "target": 34962
    },
    {
      "buffer": 10,
      "byteLength": 1440,
      "target": 34963
    },
    {
      "buffer": 11,
      "byteLength": 5760,
      "target": 34962
    },
    {
      "buffer": 12,
      "byteLength": 2880,
      "target": 34962
    },
    {
      "buffer": 13,
      "byteLength": 384
    },
    {
      "buffer": 14,
      "byteLength": 4320,
      "target": 34962
    },
    {
      "buffer": 15,
      "byteLength": 4320,
      "target": 34962
    },
    {
      "buffer": 16,
      "byteLength": 2880,
      "target": 34962
    },
    {
      "buffer": 17,
      "byteLength": 1440,
      "target": 34963
    },
    {
      "buffer": 18,
      "byteLength": 5760,
      "target": 34962
    },
    {
      "buffer": 19,
      "byteLength": 2880,
      "target": 34962
    },
    {
      "buffer": 20,
      "byteLength": 384
    },
    {
      "buffer": 21,
      "byteLength": 4320,
      "target": 34962
    },
    {
      "buffer": 22,
      "byteLength": 4320,
      "target": 34962
    },
    {
      "buffer": 23,
      "byteLength": 2880,
      "target": 34962
    },
    {
      "buffer": 24,
      "byteLength": 1440,
      "target": 34963
    },
    {
      "buffer": 25,
      "byteLength": 5760,
      "target": 34962
    },
    {
      "buffer": 26,
      "byteLength": 2880,
      "target": 34962
    },
    {
      "buffer": 27,
      "byteLength": 384
    },
    {
      "buffer": 28,
      "byteLength": 7200,
      "target": 34962
    },
    {
      "buffer": 29,
      "byteLength": 7200,
      "target": 34962
    },
    {
      "buffer": 30,
      "byteLength": 4800,
      "target": 34962
    },
    {
      "buffer": 31,
      "byteLength": 2400,
      "target": 34963
    },
    {
      "buffer": 32,
      "byteLength": 9600,
      "target": 34962
    },
    {
      "buffer": 33,
      "byteLength": 4800,
      "target": 34962
    },
    {
      "buffer": 34,
      "byteLength": 384
    },
    {
      "buffer": 35,
      "byteLength": 4320,
      "target": 34962
    },
    {
      "buffer": 36,
      "byteLength": 4320,
      "target": 34962
    },
    {
      "buffer": 37,
      "byteLength": 2880,
      "target": 34962
    },
    {
      "buffer": 38,
      "byteLength": 1440,
      "target": 34963
    },
    {
      "buffer": 39,
      "byteLength": 5760,
      "target": 34962
    },
    {
      "buffer": 40,
      "byteLength": 2880,
      "target": 34962
    },
    {
      "buffer": 41,
      "byteLength": 384
    },
    {
      "buffer": 42,
      "byteLength": 4320,
      "target": 34962
    },
    {
      "buffer": 43,
      "byteLength": 4320,
      "target": 34962
    },
    {
      "buffer": 44,
      "byteLength": 2880,
      "target": 34962
    },
    {
      "buffer": 45,
      "byteLength": 1440,
      "target": 34963
    },
    {
      "buffer": 46,
      "byteLength": 5760,
      "target": 34962
    },
    {
      "buffer": 47,
      "byteLength": 2880,
      "target": 34962
    },
    {
      "buffer": 48,
      "byteLength": 384
    },
    {
      "buffer": 49,
      "byteLength": 4320,
      "target": 34962
    },
    {
      "buffer": 50,
      "byteLength": 4320,
      "target": 34962
    },
    {
      "buffer": 51,
      "byteLength": 2880,
      "target": 34962
    },
    {
      "buffer": 52,
      "byteLength": 1440,
      "target": 34963
    },
    {
      "buffer": 53,
      "byteLength": 5760,
      "target": 34962
    },
    {
      "buffer": 54,
      "byteLength": 2880,
      "target": 34962
    },
    {
      "buffer": 55,
      "byteLength": 384
    },
    {
      "buffer": 56,
      "byteLength": 4320,
      "target": 34962
    },
    {
      "buffer": 57,
      "byteLength": 4320,
      "target": 34962
    },
    {
      "buffer": 58,
      "byteLength": 2880,
      "target": 34962
    },
    {
      "buffer": 59,
      "byteLength": 1440,
      "target": 34963
    },
    {
      "buffer": 60,
      "byteLength": 5760,
      "target": 34962
    },
    {
      "buffer": 61,
      "byteLength": 2880,
      "target": 34962
    },
    {
      "buffer": 62,
      "byteLength": 384
    },
    {
      "buffer": 63,
      "byteLength": 8640,
      "target": 34962
    },
    {
      "buffer": 64,
      "byteLength": 8640,
      "target": 34962
    },
    {
      "buffer": 65,
      "byteLength": 5760,
      "target": 34962
    },
    {
      "buffer": 66,
      "byteLength": 2880,
      "target": 34963
    },
    {
      "buffer": 67,
      "byteLength": 11520,
      "target": 34962
    },
    {
      "buffer": 68,
      "byteLength": 5760,
      "target": 34962
    },
    {
      "buffer": 69,
      "byteLength": 384
    }
  ],
  "buffers": [
    {
      "byteLength": 4320,
      "uri": "data:application/octet-stream;base64,"
    },
    {
      "byteLength": 4320,
      "uri": "data:application/octet-stream;base64,"
    },
    {
      "byteLength": 2880,
      "uri": "data:application/octet-stream;base64,"
    },
    {
      "byteLength": 1440,
      "uri": "data:application/octet-stream;base64,"
    },
    {
      "byteLength": 5760,
      "uri": "data:application/octet-stream;base64,"
    },
    {
      "byteLength": 2880,
      "uri": "data:application/octet-stream;base64,"
    },
    {
      "byteLength": 384,
      "uri": "data:application/octet-stream;base64,"
    },
    {
      "byteLength": 4320,
      "uri": "data:application/octet-stream;base64,"
    },
    {
      "byteLength": 4320,
      "uri": "data:application/octet-stream;base64,"
    },
    {
      "byteLength": 2880,
      "uri": "data:application/octet-stream;base64,"
    },
    {
      "byteLength": 1440,
      "uri": "data:application/octet-stream;base64,"
    },
    {
      "byteLength": 5760,
      "uri": "data:application/octet-stream;base64,"
    },
    {
      "byteLength": 2880,
      "uri": "data:application/octet-stream;base64,"
    },
    {
      "byteLength": 384,
      "uri": "data:application/octet-stream;base64,"
    },
    {
      "byteLength": 4320,
      "uri": "data:application/octet-stream;base64,"
    },
    {
      "byteLength": 4320,
      "uri": "data:application/octet-stream;base64,"
    },
    {
      "byteLength": 2880,
      "uri": "data:application/octet-stream;base64,"
    },
    {
      "byteLength": 1440,
      "uri": "data:application/octet-stream;base64,"
    },
    {
      "byteLength": 5760,
      "uri": "data:application/octet-stream;base64,"
    },
    {
      "byteLength": 2880,
      "uri": "data:application/octet-stream;base64,"
    },
    {
      "byteLength": 384,
      "uri": "data:application/octet-stream;base64,"
    },
    {
      "byteLength": 4320,
      "uri": "data:application/octet-stream;base64,"
    },
    {
      "byteLength": 4320,
      "uri": "data:application/octet-stream;base64,"
    },
    {
      "byteLength": 2880,
      "uri": "data:application/octet-stream;base64,"
    },
    {
      "byteLength": 1440,
      "uri": "data:application/octet-stream;base64,"
    },
    {
      "byteLength": 5760,
      "uri": "data:application/octet-stream;base64,"
    },
    {
      "byteLength": 2880,
      "uri": "data:application/octet-stream;base64,"
    },
    {
      "byteLength": 384,
      "uri": "data:application/octet-stream;base64,"
    },
    {
      "byteLength": 7200,
      "uri": "data:application/octet-stream;base64,"
    },
    {
      "byteLength": 7200,
      "uri": "data:application/octet-stream;base64,"
    },
    {
      "byteLength": 4800,
      "uri": "data:application/octet-stream;base64,"
    },
    {
      "byteLength": 2400,
      "uri": "data:application/octet-stream;base64,"
    },
    {
      "byteLength": 9600,
      "uri": "data:application/octet-stream;base64,"
    },
    {
      "byteLength": 4800,
      "uri": "data:application/octet-stream;base64,"
    },
    {
      "byteLength": 384,
      "uri": "data:application/octet-stream;base64,"
    },
    {
      "byteLength": 4320,
      "uri": "data:application/octet-stream;base64,"
    },
    {
      "byteLength": 4320,
      "uri": "data:application/octet-stream;base64,"
    },
    {
      "byteLength": 2880,
      "uri": "data:application/octet-stream;base64,"
    },
    {
      "byteLength": 1440,
      "uri": "data:application/octet-stream;base64,"
    },
    {
      "byteLength": 5760,
      "uri": "data:application/octet-stream;base64,"
    },
    {
      "byteLength": 2880,
      "uri": "data:application/octet-stream;base64,"
    },
    {
      "byteLength": 384,
      "uri": "data:application/octet-stream;base64,"
    },
    {
      "byteLength": 4320,
      "uri": "data:application/octet-stream;base64,"
    },
    {
      "byteLength": 4320,
      "uri": "data:application/octet-stream;base64,"
    },
    {
      "byteLength": 2880,
      "uri": "data:application/octet-stream;base64,"
    },
    {
      "byteLength": 1440,
      "uri": "data:application/octet-stream;base64,"
    },
    {
      "byteLength": 5760,
      "uri": "data:application/octet-stream;base64,"
    },
    {
      "byteLength": 2880,
      "uri": "data:application/octet-stream;base64,"
    },
    {
      "byteLength": 384,
      "uri": "data:application/octet-stream;base64,"
    },
    {
      "byteLength": 4320,
      "uri": "data:application/octet-stream;base64,"
    },
    {
      "byteLength": 4320,
      "uri": "data:application/octet-stream;base64,"
    },
    {
      "byteLength": 2880,
      "uri": "data:application/octet-stream;base64,"
    },
    {
      "byteLength": 1440,
      "uri": "data:application/octet-stream;base64,"
    },
    {
      "byteLength": 5760,
      "uri": "data:application/octet-stream;base64,"
    },
    {
      "byteLength": 2880,
      "uri": "data:application/octet-stream;base64,"
    },
    {
      "byteLength": 384,
      "uri": "data:application/octet-stream;base64,"
    },
    {
      "byteLength": 4320,
      "uri": "data:application/octet-stream;base64,"
    },
    {
      "byteLength": 4320,
      "uri": "data:application/octet-stream;base64,"
    },
    {
      "byteLength": 2880,
      "uri": "data:application/octet-stream;base64,"
    },
    {
      "byteLength": 1440,
      "uri": "data:application/octet-stream;base64,"
    },
    {
      "byteLength": 5760,
      "uri": "data:application/octet-stream;base64,"
    },
    {
      "byteLength": 2880,
      "uri": "data:application/octet-stream;base64,"
    },
    {
      "byteLength": 384,
      "uri": "data:application/octet-stream;base64,"
    },
    {
      "byteLength": 8640,
      "uri": "data:application/octet-stream;base64,"
    },
    {
      "byteLength": 8640,
      "uri": "data:application/octet-stream;base64,"
    },
    {
      "byteLength": 5760,
      "uri": "data:application/octet-stream;base64,"
    },
    {
      "byteLength": 2880,
      "uri": "data:application/octet-stream;base64,"
    },
    {
      "byteLength": 11520,
      "uri": "data:application/octet-stream;base64,"
    },
    {
      "byteLength": 5760,
      "uri": "data:application/octet-stream;base64,"
    },
    {
      "byteLength": 384,
      "uri": "data:application/octet-stream;base64,"
    }
  ],
  "materials": [
    {
      "doubleSided": true,
      "pbrMetallicRoughness": {
        "metallicFactor": 0.0,
        "roughnessFactor": 0.0
      }
    },
    {
      "doubleSided": true,
      "pbrMetallicRoughness": {
        "metallicFactor": 0.0,
        "roughnessFactor": 0.0
      }
    },
    {
      "doubleSided": true,
      "pbrMetallicRoughness": {
        "metallicFactor": 0.0,
        "roughnessFactor": 0.0
      }
    },
    {
      "doubleSided": true,
      "pbrMetallicRoughness": {
        "metallicFactor": 0.0,
        "roughnessFactor": 0.0
      }
    },
    {
      "doubleSided": true,
      "pbrMetallicRoughness": {
        "metallicFactor": 0.0,
        "roughnessFactor": 0.0
      }
    },
    {
      "doubleSided": true,
      "pbrMetallicRoughness": {
        "baseColorFactor": [
          0.2078431397676468,
          0.2078431397676468,
          0.2078431397676468,
          1.0
        ],
        "metallicFactor": 0.0,
        "roughnessFactor": 0.0
      }
    },
    {
      "doubleSided": true,
      "pbrMetallicRoughness": {
        "baseColorFactor": [
          0.2078431397676468,
          0.2078431397676468,
          0.2078431397676468,
          1.0
        ],
        "metallicFactor": 0.0,
        "roughnessFactor": 0.0
      }
    },
    {
      "doubleSided": true,
      "pbrMetallicRoughness": {
        "baseColorFactor": [
          0.2078431397676468,
          0.2078431397676468,
          0.2078431397676468,
          1.0
        ],
        "metallicFactor": 0.0,
        "roughnessFactor": 0.0
      }
    },
    {
      "doubleSided": true,
      "pbrMetallicRoughness": {
        "baseColorFactor": [
          0.2078431397676468,
          0.2078431397676468,
          0.2078431397676468,
          1.0
        ],
        "metallicFactor": 0.0,
        "roughnessFactor": 0.0
      }
    },
    {
      "doubleSided": true,
      "pbrMetallicRoughness": {
        "metallicFactor": 0.0,
        "roughnessFactor": 0.0
      }
    }
  ],
  "meshes": [
    {
      "primitives": [
        {
          "attributes": {
            "JOINTS_0": 5,
            "NORMAL": 1,
            "POSITION": 0,
            "TEXCOORD_0": 2,
            "WEIGHTS_0": 4
          },
          "indices": 3,
          "material": 0,
          "mode": 4
        }
      ]
    },
    {
      "primitives": [
        {
          "attributes": {
            "JOINTS_0": 12,
            "NORMAL": 8,
            "POSITION": 7,
            "TEXCOORD_0": 9,
            "WEIGHTS_0": 11
          },
          "indices": 10,
          "material": 1,
          "mode": 4
        }
      ]
    },
    {
      "primitives": [
        {
          "attributes": {
            "JOINTS_0": 19,
            "NORMAL": 15,
            "POSITION": 14,
            "TEXCOORD_0": 16,
            "WEIGHTS_0": 18
          },
          "indices": 17,
          "material": 2,
          "mode": 4
        }
      ]
    },
    {
      "primitives": [
        {
          "attributes": {
            "JOINTS_0": 26,
            "NORMAL": 22,
            "POSITION": 21,
            "TEXCOORD_0": 23,
            "WEIGHTS_0": 25
          },
          "indices": 24,
          "material": 3,
          "mode": 4
        }
      ]
    },
    {
      "primitives": [
        {
          "attributes": {
            "JOINTS_0": 33,
            "NORMAL": 29,
            "POSITION": 28,
            "TEXCOORD_0": 30,
            "WEIGHTS_0": 32
          },
          "indices": 31,
          "material": 4,
          "mode": 4
        }
      ]
    },
    {
      "primitives": [
        {
          "attributes": {
            "JOINTS_0": 40,
            "NORMAL": 36,
            "POSITION": 35,
            "TEXCOORD_0": 37,
            "WEIGHTS_0": 39
          },
          "indices": 38,
          "material": 5,
          "mode": 4
        }
      ]
    },
    {
      "primitives": [
        {
          "attributes": {
            "JOINTS_0": 47,
            "NORMAL": 43,
            "POSITION": 42,
            "TEXCOORD_0": 44,
            "WEIGHTS_0": 46
          },
          "indices": 45,
          "material": 6,
          "mode": 4
        }
      ]
    },
    {
      "primitives": [
        {
          "attributes": {
            "JOINTS_0": 54,
            "NORMAL": 50,
            "POSITION": 49,
            "TEXCOORD_0": 51,
            "WEIGHTS_0": 53
          },
          "indices": 52,
          "material": 7,
          "mode": 4
        }
      ]
    },
    {
      "primitives": [
        {
          "attributes": {
            "JOINTS_0": 61,
            "NORMAL": 57,
            "POSITION": 56,
            "TEXCOORD_0": 58,
            "WEIGHTS_0": 60
          },
          "indices": 59,
          "material": 8,
          "mode": 4
        }
      ]
    },
    {
      "primitives": [
        {
          "attributes": {
            "JOINTS_0": 68,
            "NORMAL": 64,
            "POSITION": 63,
            "TEXCOORD_0": 65,
            "WEIGHTS_0": 67
          },
          "indices": 66,
          "material": 9,
          "mode": 4
        }
      ]
    }
  ],
  "nodes": [
    {
      "children": [
        1
      ],
      "name": "1player",
      "rotation": [
        0.0,
        -0.0,
        -0.0,
        1.0
      ],
      "scale": [
        1.0,
        1.0,
        1.0
      ],
      "translation": [
        -0.0,
        0.0,
        0.0
      ]
    },
    {
      "children": [
        49,
        48,
        47,
        46,
        45,
        44,
        43,
        42,
        4,
        3,
        2
      ],
      "name": "Scene",
      "rotation": [
        0.0,
        -0.0,
        -0.0,
        1.0
      ],
      "scale": [
        1.0,
        1.0,
        1.0
      ],
      "translation": [
        -0.0,
        -0.4239543676376343,
        0.8531771898269653
      ]
    },
    {
      "name": "right leg",
      "rotation": [
        0.0,
        -0.0,
        -0.0,
        1.0
      ],
      "scale": [
        1.0,
        1.0,
        1.0
      ],
      "translation": [
        -0.0,
        0.0,
        0.0
      ]
    },
    {
      "name": "right hand",
      "rotation": [
        0.0,
        -0.0,
        -0.0,
        1.0
      ],
      "scale": [
        1.0,
        1.0,
        1.0
      ],
      "translation": [
        -0.0,
        0.0,
        0.0
      ]
    },
    {
      "children": [
        5
      ],
      "name": "player",
      "rotation": [
        0.0,
        -0.0,
        -0.0,
        1.0
      ],
      "scale": [
        1.0,
        1.0,
        1.0
      ],
      "translation": [
        -0.0,
        1.2058603715559002e-07,
        -1.0115491151809692
      ]
    },
    {
      "children": [
        41,
        40,
        39,
        38,
        37,
        36,
        35,
        34,
        8,
        7,
        6
      ],
      "name": "Scene",
      "rotation": [
        0.0,
        -0.0,
        -0.0,
        1.0
      ],
      "scale": [
        1.0,
        1.0,
        1.0
      ],
      "translation": [
        -0.0,
        1.3767476048087701e-09,
        0.0
      ]
    },
    {
      "name": "right leg",
      "rotation": [
        0.0,
        -0.0,
        -0.0,
        1.0
      ],
      "scale": [
        1.0,
        1.0,
        1.0
      ],
      "translation": [
        -0.0,
        1.3767476048087701e-09,
        0.0
      ]
    },
    {
      "name": "right hand",
      "rotation": [
        0.0,
        -0.0,
        -0.0,
        1.0
      ],
      "scale": [
        1.0,
        1.0,
        1.0
      ],
      "translation": [
        -0.0,
        1.3767476048087701e-09,
        0.0
      ]
    },
    {
      "children": [
        28,
        22,
        9
      ],
      "name": "player",
      "rotation": [
        0.0,
        -0.0,
        -0.0,
        1.0
      ],
      "scale": [
        1.0,
        1.0,
        1.0
      ],
      "translation": [
        -0.0,
        1.3767476048087701e-09,
        0.0
      ]
    },
    {
      "children": [
        10
      ],
      "name": "Scene",
      "rotation": [
        0.0,
        -0.0,
        -0.0,
        1.0
      ],
      "scale": [
        1.0,
        1.0,
        1.0
      ],
      "translation": [
        -0.0,
        1.3767476048087701e-09,
        0.0
      ]
    },
    {
      "children": [
        21,
        15,
        14,
        13,
        12,
        11
      ],
      "name": "Group",
      "rotation": [
        0.0,
        -0.7071068286895752,
        -0.0,
        -0.7071068286895752
      ],
      "scale": [
        1.0,
        1.0,
        1.0
      ],
      "translation": [
        -0.0,
        1.3767476048087701e-09,
        0.0
      ]
    },
    {
      "name": "right leg",
      "rotation": [
        0.0,
        -0.0,
        -0.0,
        1.0
      ],
      "scale": [
        1.0,
        1.0,
        1.0
      ],
      "translation": [
        -0.0,
        1.3767476048087701e-09,
        -1.7763568394002505e-15
      ]
    },
    {
      "name": "right hand",
      "rotation": [
        0.0,
        -0.0,
        -0.0,
        1.0
      ],
      "scale": [
        1.0,
        1.0,
        1.0
      ],
      "translation": [
        -0.0,
        1.3767476048087701e-09,
        -1.7763568394002505e-15
      ]
    },
    {
      "name": "left leg",
      "rotation": [
        0.0,
        -0.0,
        -0.0,
        1.0
      ],
      "scale": [
        1.0,
        1.0,
        1.0
      ],
      "translation": [
        -0.0,
        1.3767476048087701e-09,
        -1.7763568394002505e-15
      ]
    },
    {
      "name": "left hand",
      "rotation": [
        0.0,
        -0.0,
        -0.0,
        1.0
      ],
      "scale": [
        1.0,
        1.0,
        1.0
      ],
      "translation": [
        -0.0,
        1.3767476048087701e-09,
        -1.7763568394002505e-15
      ]
    },
    {
      "children": [
        20,
        19,
        18,
        17,
        16
      ],
      "name": "face ",
      "rotation": [
        0.0,
        -0.7071068286895752,
        -0.0,
        0.7071067094802856
      ],
      "scale": [
        1.0,
        1.0,
        1.0
      ],
      "translation": [
        -0.0,
        1.3767476048087701e-09,
        -1.7763568394002505e-15
      ]
    },
    {
      "name": "head",
      "rotation": [
        0.0,
        -0.0,
        -0.0,
        1.0
      ],
      "scale": [
        1.0,
        1.0,
        1.0
      ],
      "translation": [
        1.7763568394002505e-15,
        1.3767476048087701e-09,
        0.0
      ]
    },
    {
      "name": "Cylinder 3",
      "rotation": [
        0.0,
        -0.0,
        -0.0,
        1.0
      ],
      "scale": [
        1.0,
        1.0,
        1.0
      ],
      "translation": [
        1.7763568394002505e-15,
        1.3767476048087701e-09,
        0.0
      ]
    },
    {
      "name": "Cylinder 2",
      "rotation": [
        0.0,
        -0.0,
        -0.0,
        1.0
      ],
      "scale": [
        1.0,
        1.0,
        1.0
      ],
      "translation": [
        1.7763568394002505e-15,
        1.3767476048087701e-09,
        0.0
      ]
    },
    {
      "name": "Cylinder 1",
      "rotation": [
        0.0,
        -0.0,
        -0.0,
        1.0
      ],
      "scale": [
        1.0,
        1.0,
        1.0
      ],
      "translation": [
        1.7763568394002505e-15,
        1.3767476048087701e-09,
        0.0
      ]
    },
    {
      "name": "Cylinder",
      "rotation": [
        0.0,
        -0.0,
        -0.0,
        1.0
      ],
      "scale": [
        1.0,
        1.0,
        1.0
      ],
      "translation": [
        1.7763568394002505e-15,
        1.3767476048087701e-09,
        0.0
      ]
    },
    {
      "name": "body",
      "rotation": [
        0.0,
        -0.0,
        -0.0,
        1.0
      ],
      "scale": [
        1.0,
        1.0,
        1.0
      ],
      "translation": [
        -0.0,
        1.3767476048087701e-09,
        -1.7763568394002505e-15
      ]
    },
    {
      "children": [
        27,
        24,
        23
      ],
      "name": "Bone 1",
      "rotation": [
        0.0,
        -0.0,
        -0.0,
        1.0
      ],
      "scale": [
        1.0,
        1.0,
        1.0
      ],
      "translation": [
        -0.008939717896282673,
        2.3058860301971436,
        0.17039044201374054
      ]
    },
    {
      "name": "Bone 2",
      "rotation": [
        0.7577725648880005,
        0.5321780443191528,
        0.11409658938646317,
        0.35992956161499023
      ],
      "scale": [
        1.0,
        1.0,
        1.0
      ],
      "translation": [
        -0.637937068939209,
        -0.01595449447631836,
        -0.0036590099334716797
      ]
    },
    {
      "children": [
        26,
        25
      ],
      "name": "Bone 1",
      "rotation": [
        0.0,
        -0.0,
        -0.0,
        1.0
      ],
      "scale": [
        1.0,
        1.0,
        1.0
      ],
      "translation": [
        -0.005036914721131325,
        -0.5006802082061768,
        0.0006027668714523315
      ]
    },
    {
      "name": "Bone 1",
      "rotation": [
        0.0,
        -0.0,
        -0.0,
        1.0
      ],
      "scale": [
        1.0,
        1.0,
        1.0
      ],
      "translation": [
        0.26651710271835327,
        -0.25952744483947754,
        -0.022788435220718384
      ]
    },
    {
      "name": "Bone",
      "rotation": [
        0.2396479696035385,
        -0.7024476528167725,
        0.2755592167377472,
        0.6109037399291992
      ],
      "scale": [
        1.0,
        1.0,
        1.0
      ],
      "translation": [
        -0.2850165367126465,
        -0.26686549186706543,
        -0.039926618337631226
      ]
    },
    {
      "name": "Bone",
      "rotation": [
        0.26869159936904907,
        -0.6180193424224854,
        0.7383818626403809,
        0.025479882955551147
      ],
      "scale": [
        1.0,
        1.0,
        1.0
      ],
      "translation": [
        0.6571723222732544,
        -0.01903510093688965,
        -0.002254307270050049
      ]
    },
    {
      "children": [
        33,
        30,
        29
      ],
      "name": "body",
      "rotation": [
        0.0,
        -0.0,
        -0.0,
        1.0
      ],
      "scale": [
        1.0,
        1.0,
        1.0
      ],
      "translation": [
        -0.008939717896282673,
        2.3058860301971436,
        0.17039044201374054
      ]
    },
    {
      "name": "right arm",
      "rotation": [
        -0.7630155682563782,
        -0.5576425790786743,
        -0.18763618171215057,
        -0.2676466703414917
      ],
      "scale": [
        1.0,
        1.0,
        1.0
      ],
      "translation": [
        -0.637937068939209,
        -0.01595449447631836,
        -0.0036590248346328735
      ]
    },
    {
      "children": [
        32,
        31
      ],
      "name": "body2",
      "rotation": [
        0.0,
        -0.0,
        -0.0,
        1.0
      ],
      "scale": [
        1.0,
        1.0,
        1.0
      ],
      "translation": [
        -0.005036914721131325,
        -0.5006802082061768,
        0.0006027668714523315
      ]
    },
    {
      "name": "left leg",
      "rotation": [
        0.0,
        -0.0,
        -0.0,
        1.0
      ],
      "scale": [
        1.0,
        1.0,
        1.0
      ],
      "translation": [
        0.26651710271835327,
        -0.25952744483947754,
        -0.022788435220718384
      ]
    },
    {
      "name": "right leg",
      "rotation": [
        0.2396479696035385,
        -0.7024476528167725,
        0.2755592167377472,
        0.6109037399291992
      ],
      "scale": [
        1.0,
        1.0,
        1.0
      ],
      "translation": [
        -0.2850165367126465,
        -0.26686549186706543,
        -0.039926618337631226
      ]
    },
    {
      "name": "left arm ",
      "rotation": [
        0.26869159936904907,
        -0.6180193424224854,
        0.7383818626403809,
        0.025479882955551147
      ],
      "scale": [
        1.0,
        1.0,
        1.0
      ],
      "translation": [
        0.6571723222732544,
        -0.01903510093688965,
        -0.002254307270050049
      ]
    },
    {
      "name": "left leg",
      "rotation": [
        0.0,
        -0.0,
        -0.0,
        1.0
      ],
      "scale": [
        1.0,
        1.0,
        1.0
      ],
      "translation": [
        -0.0,
        1.3767476048087701e-09,
        0.0
      ]
    },
    {
      "name": "left hand",
      "rotation": [
        0.0,
        -0.0,
        -0.0,
        1.0
      ],
      "scale": [
        1.0,
        1.0,
        1.0
      ],
      "translation": [
        -0.0,
        1.3767476048087701e-09,
        0.0
      ]
    },
    {
      "name": "head",
      "rotation": [
        0.0,
        -0.0,
        -0.0,
        1.0
      ],
      "scale": [
        1.0,
        1.0,
        1.0
      ],
      "translation": [
        -0.0,
        1.3767476048087701e-09,
        0.0
      ]
    },
    {
      "name": "Cylinder 3",
      "rotation": [
        0.0,
        -0.0,
        -0.0,
        1.0
      ],
      "scale": [
        1.0,
        1.0,
        1.0
      ],
      "translation": [
        -0.0,
        1.3767476048087701e-09,
        0.0
      ]
    },
    {
      "name": "Cylinder 2",
      "rotation": [
        0.0,
        -0.0,
        -0.0,
        1.0
      ],
      "scale": [
        1.0,
        1.0,
        1.0
      ],
      "translation": [
        -0.0,
        1.3767476048087701e-09,
        0.0
      ]
    },
    {
      "name": "Cylinder 1",
      "rotation": [
        0.0,
        -0.0,
        -0.0,
        1.0
      ],
      "scale": [
        1.0,
        1.0,
        1.0
      ],
      "translation": [
        -0.0,
        1.3767476048087701e-09,
        0.0
      ]
    },
    {
      "name": "Cylinder",
      "rotation": [
        0.0,
        -0.0,
        -0.0,
        1.0
      ],
      "scale": [
        1.0,
        1.0,
        1.0
      ],
      "translation": [
        -0.0,
        1.3767476048087701e-09,
        0.0
      ]
    },
    {
      "name": "body",
      "rotation": [
        0.0,
        -0.0,
        -0.0,
        1.0
      ],
      "scale": [
        1.0,
        1.0,
        1.0
      ],
      "translation": [
        -0.0,
        1.3767476048087701e-09,
        0.0
      ]
    },
    {
      "name": "left leg",
      "rotation": [
        0.0,
        -0.0,
        -0.0,
        1.0
      ],
      "scale": [
        1.0,
        1.0,
        1.0
      ],
      "translation": [
        -0.0,
        0.0,
        0.0
      ]
    },
    {
      "name": "left hand",
      "rotation": [
        0.0,
        -0.0,
        -0.0,
        1.0
      ],
      "scale": [
        1.0,
        1.0,
        1.0
      ],
      "translation": [
        -0.0,
        0.0,
        0.0
      ]
    },
    {
      "name": "head",
      "rotation": [
        0.0,
        -0.0,
        -0.0,
        1.0
      ],
      "scale": [
        1.0,
        1.0,
        1.0
      ],
      "translation": [
        -0.0,
        0.0,
        0.0
      ]
    },
    {
      "name": "Cylinder 3",
      "rotation": [
        0.0,
        -0.0,
        -0.0,
        1.0
      ],
      "scale": [
        1.0,
        1.0,
        1.0
      ],
      "translation": [
        -0.0,
        0.0,
        0.0
      ]
    },
    {
      "name": "Cylinder 2",
      "rotation": [
        0.0,
        -0.0,
        -0.0,
        1.0
      ],
      "scale": [
        1.0,
        1.0,
        1.0
      ],
      "translation": [
        -0.0,
        0.0,
        0.0
      ]
    },
    {
      "name": "Cylinder 1",
      "rotation": [
        0.0,
        -0.0,
        -0.0,
        1.0
      ],
      "scale": [
        1.0,
        1.0,
        1.0
      ],
      "translation": [
        -0.0,
        0.0,
        0.0
      ]
    },
    {
      "name": "Cylinder",
      "rotation": [
        0.0,
        -0.0,
        -0.0,
        1.0
      ],
      "scale": [
        1.0,
        1.0,
        1.0
      ],
      "translation": [
        -0.0,
        0.0,
        0.0
      ]
    },
    {
      "name": "body",
      "rotation": [
        0.0,
        -0.0,
        -0.0,
        1.0
      ],
      "scale": [
        1.0,
        1.0,
        1.0
      ],
      "translation": [
        -0.0,
        0.0,
        0.0
      ]
    },
    {
      "mesh": 0,
      "name": "right leg",
      "rotation": [
        0.0,
        -0.0,
        -0.0,
        1.0
      ],
      "scale": [
        1.0,
        1.0,
        1.0
      ],
      "skin": 0,
      "translation": [
        -0.0,
        0.0,
        0.0
      ]
    },
    {
      "mesh": 1,
      "name": "right hand",
      "rotation": [
        0.0,
        -0.0,
        -0.0,
        1.0
      ],
      "scale": [
        1.0,
        1.0,
        1.0
      ],
      "skin": 1,
      "translation": [
        -0.0,
        0.0,
        0.0
      ]
    },
    {
      "mesh": 2,
      "name": "left leg",
      "rotation": [
        0.0,
        -0.0,
        -0.0,
        1.0
      ],
      "scale": [
        1.0,
        1.0,
        1.0
      ],
      "skin": 2,
      "translation": [
        -0.0,
        0.0,
        0.0
      ]
    },
    {
      "mesh": 3,
      "name": "left hand",
      "rotation": [
        0.0,
        -0.0,
        -0.0,
        1.0
      ],
      "scale": [
        1.0,
        1.0,
        1.0
      ],
      "skin": 3,
      "translation": [
        -0.0,
        0.0,
        0.0
      ]
    },
    {
      "mesh": 4,
      "name": "head",
      "rotation": [
        0.0,
        -0.0,
        -0.0,
        1.0
      ],
      "scale": [
        1.0,
        1.0,
        1.0
      ],
      "skin": 4,
      "translation": [
        -0.0,
        0.0,
        0.0
      ]
    },
    {
      "mesh": 5,
      "name": "Cylinder 3",
      "rotation": [
        0.0,
        -0.0,
        -0.0,
        1.0
      ],
      "scale": [
        1.0,
        1.0,
        1.0
      ],
      "skin": 5,
      "translation": [
        -0.0,
        0.0,
        0.0
      ]
    },
    {
      "mesh": 6,
      "name": "Cylinder 2",
      "rotation": [
        0.0,
        -0.0,
        -0.0,
        1.0
      ],
      "scale": [
        1.0,
        1.0,
        1.0
      ],
      "skin": 6,
      "translation": [
        -0.0,
        0.0,
        0.0
      ]
    },
    {
      "mesh": 7,
      "name": "Cylinder 1",
      "rotation": [
        0.0,
        -0.0,
        -0.0,
        1.0
      ],
      "scale": [
        1.0,
        1.0,
        1.0
      ],
      "skin": 7,
      "translation": [
        -0.0,
        0.0,
        0.0
      ]
    },
    {
      "mesh": 8,
      "name": "Cylinder",
      "rotation": [
        0.0,
        -0.0,
        -0.0,
        1.0
      ],
      "scale": [
        1.0,
        1.0,
        1.0
      ],
      "skin": 8,
      "translation": [
        -0.0,
        0.0,
        0.0
      ]
    },
    {
      "mesh": 9,
      "name": "body",
      "rotation": [
        0.0,
        -0.0,
        -0.0,
        1.0
      ],
      "scale": [
        1.0,
        1.0,
        1.0
      ],
      "skin": 9,
      "translation": [
        -0.0,
        0.0,
        0.0
      ]
    }
  ],
  "scenes": [
    {
      "nodes": [
        0,
        50,
        51,
        52,
        53,
        54,
        55,
        56,
        57,
        58,
        59
      ]
    }
  ],
  "skins": [
    {
      "inverseBindMatrices": 6,
      "joints": [
        31,
        28,
        33,
        29,
        30,
        32
      ]
    },
    {
      "inverseBindMatrices": 13,
      "joints": [
        31,
        28,
        33,
        29,
        30,
        32
      ]
    },
    {
      "inverseBindMatrices": 20,
      "joints": [
        31,
        28,
        33,
        29,
        30,
        32
      ]
    },
    {
      "inverseBindMatrices": 27,
      "joints": [
        31,
        28,
        33,
        29,
        30,
        32
      ]
    },
    {
      "inverseBindMatrices": 34,
      "joints": [
        31,
        28,
        33,
        29,
        30,
        32
      ]
    },
    {
      "inverseBindMatrices": 41,
      "joints": [
        31,
        28,
        33,
        29,
        30,
        32
      ]
    },
    {
      "inverseBindMatrices": 48,
      "joints": [
        31,
        28,
        33,
        29,
        30,
        32
      ]
    },
    {
      "inverseBindMatrices": 55,
      "joints": [
        31,
        28,
        33,
        29,
        30,
        32
      ]
    },
    {
      "inverseBindMatrices": 62,
      "joints": [
        31,
        28,
        33,
        29,
        30,
        32
      ]
    },
    {
      "inverseBindMatrices": 69,
      "joints": [
        31,
        28,
        33,
        29,
        30,
        32
      ]
    }
  ]
}
